<?xml version="1.0" encoding="UTF-8"?>
<svg id="Layer_1" data-name="Layer 1" xmlns="http://www.w3.org/2000/svg" xmlns:xlink="http://www.w3.org/1999/xlink" viewBox="0 0 433.43 286.6">
  <defs>
    <style>
      .cls-1 {
        fill: none;
      }

      .cls-2 {
        clip-path: url(#clippath-1);
      }

      .cls-3 {
        fill: #086e78;
      }

      .cls-4 {
        clip-path: url(#clippath);
      }
    </style>
    <clipPath id="clippath">
      <rect class="cls-1" x="71.39" y="123.63" width="140.91" height="162.56"/>
    </clipPath>
    <clipPath id="clippath-1">
      <rect class="cls-1" y="59.8" width="140.28" height="131.47"/>
    </clipPath>
  </defs>
  <g>
    <g class="cls-4">
      <path d="M143.35,228.54c20.51-5.54,37.13-14.27,49.84-26.16,12.71-11.88,19.07-27.26,19.07-46.14v-32.15l-71.67.14v34.68c0,10-4.67,17.99-14.01,23.99-9.33,5.99-22.73,8.99-40.19,8.99h-14.93v46.55l43.45,48.15h82.69l-54.24-58.06"/>
    </g>
    <g class="cls-2">
      <path d="M139.91,123.66v-63.85H.03v131.06h70.75v-67.21h69.13"/>
    </g>
  </g>
  <polygon points="212.29 59.79 212.29 117.71 286.66 117.71 286.66 228.54 359.39 286.19 359.39 117.71 433.43 117.71 433.43 59.79 212.29 59.79"/>
  <g>
    <path class="cls-3" d="M35.98,40.83H11.38l15.08-15.25h24.6l-15.08,15.25Z"/>
    <path class="cls-3" d="M75.66,25.58h-24.6l15.08-15.25h24.6l-15.08,15.25Z"/>
    <path class="cls-3" d="M85.18,40.83h-24.6l15.08-15.25h24.6l-15.08,15.25Z"/>
    <path class="cls-3" d="M124.86,25.58h-24.6l15.08-15.25h24.6l-15.08,15.25Z"/>
    <path class="cls-3" d="M134.38,40.83h-24.6l15.08-15.25h24.6l-15.08,15.25Z"/>
    <path class="cls-3" d="M174.07,25.58h-24.6l15.08-15.25h24.6l-15.08,15.25Z"/>
    <path class="cls-3" d="M183.58,40.83h-24.6l15.08-15.25h24.6l-15.08,15.25Z"/>
    <path class="cls-3" d="M244.9,40.83h-24.6l15.08-15.25h24.6l-15.08,15.25Z"/>
    <path class="cls-3" d="M284.58,25.58h-24.6l15.08-15.25h24.6l-15.08,15.25Z"/>
    <path class="cls-3" d="M294.1,40.83h-24.6l15.08-15.25h24.6l-15.08,15.25Z"/>
    <path class="cls-3" d="M333.78,25.58h-24.6l15.08-15.25h24.6l-15.08,15.25Z"/>
    <path class="cls-3" d="M343.3,40.83h-24.6l15.08-15.25h24.6l-15.08,15.25Z"/>
    <path class="cls-3" d="M382.98,25.58h-24.6l15.08-15.25h24.6l-15.08,15.25Z"/>
    <path class="cls-3" d="M392.5,40.83h-24.6l15.08-15.25h24.6l-15.08,15.25Z"/>
    <path class="cls-3" d="M.02,48.64c48.92-1.1,98.58-1.64,147.53-1.92,16.39-.09,32.78-.18,49.18-.19l-1.54.67c10.79-11.63,32.56-34.97,43.41-46.54l.63-.67h.91s24.16.05,24.16.05c56.09.27,113.08.74,169.13,2.07-56.04,1.32-113.04,1.8-169.13,2.07l-24.16.05,1.54-.67c-11.11,11.98-32.87,35.29-44.05,47.19-65.74-.13-131.88-.65-197.62-2.1Z"/>
  </g>
</svg>