<?xml version="1.0" encoding="UTF-8"?>
<svg id="Layer_1" data-name="Layer 1" xmlns="http://www.w3.org/2000/svg" xmlns:xlink="http://www.w3.org/1999/xlink" viewBox="0 0 433.61 286.6">
  <defs>
    <style>
      .cls-1 {
        fill: #fff;
      }

      .cls-2 {
        fill: none;
      }

      .cls-3 {
        clip-path: url(#clippath-1);
      }

      .cls-4 {
        fill: #086e78;
      }

      .cls-5 {
        clip-path: url(#clippath);
      }
    </style>
    <clipPath id="clippath">
      <rect class="cls-2" x="71.45" y="123.63" width="141.03" height="162.55"/>
    </clipPath>
    <clipPath id="clippath-1">
      <rect class="cls-2" y="59.8" width="140.4" height="131.46"/>
    </clipPath>
  </defs>
  <g>
    <g class="cls-5">
      <path class="cls-1" d="M143.48,228.54c20.53-5.54,37.16-14.27,49.88-26.16,12.72-11.88,19.08-27.26,19.08-46.14v-32.15l-71.73.14v34.68c0,10-4.68,17.99-14.02,23.99-9.34,5.99-22.75,8.99-40.23,8.99h-14.94v46.55l43.49,48.15h82.76l-54.29-58.05"/>
    </g>
    <g class="cls-3">
      <path class="cls-1" d="M140.03,123.66v-63.85H.03v131.06h70.81v-67.21h69.19"/>
    </g>
  </g>
  <polygon class="cls-1" points="212.48 59.79 212.48 117.71 286.85 117.71 286.85 228.54 359.57 286.19 359.57 117.71 433.61 117.71 433.61 59.79 212.48 59.79"/>
  <g>
    <path class="cls-4" d="M36.16,40.83H11.56l15.08-15.25h24.6l-15.08,15.25Z"/>
    <path class="cls-4" d="M75.85,25.58h-24.6l15.08-15.25h24.6l-15.08,15.25Z"/>
    <path class="cls-4" d="M85.36,40.83h-24.6l15.08-15.25h24.6l-15.08,15.25Z"/>
    <path class="cls-4" d="M125.05,25.58h-24.6l15.08-15.25h24.6l-15.08,15.25Z"/>
    <path class="cls-4" d="M134.57,40.83h-24.6l15.08-15.25h24.6l-15.08,15.25Z"/>
    <path class="cls-4" d="M174.25,25.58h-24.6l15.08-15.25h24.6l-15.08,15.25Z"/>
    <path class="cls-4" d="M183.77,40.83h-24.6l15.08-15.25h24.6l-15.08,15.25Z"/>
    <path class="cls-4" d="M245.08,40.83h-24.6l15.08-15.25h24.6l-15.08,15.25Z"/>
    <path class="cls-4" d="M284.77,25.58h-24.6l15.08-15.25h24.6l-15.08,15.25Z"/>
    <path class="cls-4" d="M294.28,40.83h-24.6l15.08-15.25h24.6l-15.08,15.25Z"/>
    <path class="cls-4" d="M333.97,25.58h-24.6l15.08-15.25h24.6l-15.08,15.25Z"/>
    <path class="cls-4" d="M343.49,40.83h-24.6l15.08-15.25h24.6l-15.08,15.25Z"/>
    <path class="cls-4" d="M383.17,25.58h-24.6l15.08-15.25h24.6l-15.08,15.25Z"/>
    <path class="cls-4" d="M392.69,40.83h-24.6l15.08-15.25h24.6l-15.08,15.25Z"/>
    <path class="cls-4" d="M.2,48.64c48.92-1.1,98.58-1.64,147.53-1.92,16.39-.09,32.78-.18,49.18-.19l-1.54.67c10.79-11.63,32.56-34.97,43.41-46.54l.63-.67h.91s24.16.05,24.16.05c56.09.27,113.08.74,169.13,2.07-56.04,1.32-113.04,1.8-169.13,2.07l-24.16.05,1.54-.67c-11.11,11.98-32.87,35.29-44.05,47.19-65.74-.13-131.88-.65-197.62-2.1Z"/>
  </g>
</svg>