<?xml version="1.0" encoding="UTF-8"?>
<svg id="Layer_1" data-name="Layer 1" xmlns="http://www.w3.org/2000/svg" xmlns:xlink="http://www.w3.org/1999/xlink" viewBox="0 0 1920.01 527.2">
  <defs>
    <style>
      .cls-1 {
        fill: none;
      }

      .cls-2 {
        clip-path: url(#clippath-1);
      }

      .cls-3 {
        fill: #086e78;
      }

      .cls-4 {
        clip-path: url(#clippath);
      }
    </style>
    <clipPath id="clippath">
      <rect class="cls-1" x="71.39" y="360.69" width="140.91" height="162.56"/>
    </clipPath>
    <clipPath id="clippath-1">
      <rect class="cls-1" y="296.86" width="140.28" height="131.47"/>
    </clipPath>
  </defs>
  <g>
    <g class="cls-4">
      <path d="M143.35,465.6c20.51-5.54,37.13-14.27,49.84-26.16,12.71-11.88,19.07-27.26,19.07-46.14v-32.15l-71.67.14v34.68c0,10-4.67,17.99-14.01,23.99-9.33,5.99-22.73,8.99-40.19,8.99h-14.93v46.55l43.45,48.15h82.69l-54.24-58.06"/>
    </g>
    <g class="cls-2">
      <path d="M139.91,360.71v-63.85H.03v131.06h70.75v-67.21h69.13"/>
    </g>
  </g>
  <path class="cls-3" d="M159.33,180.88H50.35l66.81-67.56h108.98l-66.81,67.56Z"/>
  <path class="cls-3" d="M335.12,113.32h-108.98l66.81-67.56h108.98l-66.81,67.56Z"/>
  <path class="cls-3" d="M377.29,180.88h-108.98l66.81-67.56h108.98l-66.81,67.56Z"/>
  <path class="cls-3" d="M553.08,113.32h-108.98l66.81-67.56h108.98l-66.81,67.56Z"/>
  <path class="cls-3" d="M595.25,180.88h-108.98l66.81-67.56h108.98l-66.81,67.56Z"/>
  <path class="cls-3" d="M771.04,113.32h-108.98l66.81-67.56h108.98l-66.81,67.56Z"/>
  <path class="cls-3" d="M813.21,180.88h-108.98l66.81-67.56h108.98l-66.81,67.56Z"/>
  <path class="cls-3" d="M1084.83,180.88h-108.98l66.81-67.56h108.98l-66.81,67.56Z"/>
  <path class="cls-3" d="M1260.63,113.32h-108.98l66.81-67.56h108.98l-66.81,67.56Z"/>
  <path class="cls-3" d="M1302.79,180.88h-108.98l66.81-67.56h108.98l-66.81,67.56Z"/>
  <path class="cls-3" d="M1478.58,113.32h-108.98l66.81-67.56h108.98l-66.81,67.56Z"/>
  <path class="cls-3" d="M1520.76,180.88h-108.98l66.81-67.56h108.98l-66.81,67.56Z"/>
  <path class="cls-3" d="M1696.54,113.32h-108.98l66.81-67.56h108.98l-66.81,67.56Z"/>
  <path class="cls-3" d="M1738.71,180.88h-108.98l66.81-67.56h108.98l-66.81,67.56Z"/>
  <path class="cls-3" d="M.02,215.49c216.73-4.86,436.72-7.28,653.54-8.48,72.62-.42,145.23-.81,217.85-.83l-6.82,2.96c47.79-51.52,144.24-154.92,192.31-206.15l2.79-2.98h4.05s107.03.21,107.03.21c248.47,1.18,500.94,3.29,749.22,9.15-248.24,5.85-500.77,7.98-749.22,9.15l-107.03.2,6.84-2.97c-49.23,53.05-145.62,156.31-195.14,209.07-291.24-.56-584.24-2.87-875.43-9.32Z"/>
  <path d="M436.64,322.84c21.28,19.96,31.92,49.03,31.92,87.2s-10.64,67.24-31.92,87.2c-21.28,19.96-51.45,29.95-90.49,29.95s-69.16-9.92-90.33-29.78c-21.17-19.85-31.75-48.97-31.75-87.37s10.58-67.51,31.75-87.37c21.17-19.85,51.28-29.78,90.33-29.78s69.21,9.99,90.49,29.95ZM310.61,361.35c-8.12,9.43-12.18,22.16-12.18,38.17v21.06c0,16.02,4.06,28.74,12.18,38.17,8.11,9.43,19.96,14.15,35.54,14.15s27.48-4.72,35.7-14.15c8.23-9.43,12.34-22.16,12.34-38.17v-21.06c0-16.01-4.11-28.74-12.34-38.17-8.23-9.43-20.13-14.15-35.7-14.15s-27.43,4.72-35.54,14.15Z"/>
  <path d="M629.52,523.25l-9.54-31.92h-79.3l-9.54,31.92h-74.37l82.6-226.4h84.57l82.6,226.4h-77ZM555.81,440.65h49.03l-23.69-80.62h-1.32l-24.02,80.62Z"/>
  <path d="M934.98,410.05c0,75.47-39.6,113.2-118.79,113.2h-98.06v-226.4h98.06c79.19,0,118.79,37.73,118.79,113.2ZM790.85,468.95h24.02c30.49,0,45.74-16.34,45.74-49.03v-19.74c0-32.69-15.25-49.03-45.74-49.03h-24.02v117.81Z"/>
  <path d="M1379.01,403.79c-7.46,11.19-18.32,19.42-32.58,24.68l50.35,94.77h-81.61l-40.15-82.6h-26.98v82.6h-72.72v-226.4h138.54c16.23,0,30.11,3.13,41.63,9.38,11.52,6.25,20.18,14.7,26,25.34,5.81,10.64,8.72,22.21,8.72,34.72,0,13.82-3.73,26.33-11.19,37.51ZM1310.23,354.44c-3.95-3.95-8.78-5.92-14.48-5.92h-47.71v41.79h47.71c5.7,0,10.53-2.03,14.48-6.09,3.95-4.06,5.92-9.05,5.92-14.97s-1.97-10.86-5.92-14.81Z"/>
  <path d="M1408.91,523.25v-226.4h72.72v226.4h-72.72Z"/>
  <path d="M1677.06,303.92c9.54,4.72,17.11,11.35,22.71,19.91,5.59,8.56,8.39,18.1,8.39,28.63,0,27.86-12.62,45.41-37.84,52.65v1.32c28.74,6.58,43.11,25.45,43.11,56.6,0,11.85-2.91,22.33-8.72,31.43-5.82,9.11-13.77,16.18-23.86,21.22-10.09,5.05-21.17,7.57-33.24,7.57h-152.69v-226.4h150.71c11.4,0,21.88,2.36,31.43,7.08ZM1567.64,385.04h50.02c4.82,0,8.83-1.7,12.01-5.1,3.18-3.4,4.77-7.62,4.77-12.67v-3.29c0-4.82-1.65-8.94-4.94-12.34-3.29-3.4-7.24-5.1-11.85-5.1h-50.02v38.5ZM1567.64,470.6h55.28c4.82,0,8.83-1.7,12.01-5.1,3.18-3.4,4.77-7.62,4.77-12.67v-3.29c0-5.04-1.59-9.27-4.77-12.67-3.18-3.4-7.19-5.1-12.01-5.1h-55.28v38.83Z"/>
  <path d="M1721.91,296.85h195.79v54.3h-123.07v31.26h105.3v51.99h-105.3v34.55h125.38v54.3h-198.1v-226.4Z"/>
  <polygon points="942.66 296.85 942.66 354.76 1017.03 354.76 1017.03 465.6 1089.75 523.25 1089.75 354.76 1163.79 354.76 1163.79 296.85 942.66 296.85"/>
</svg>